<?xml version="1.0" encoding="utf-8"?>
<!-- Generator: Adobe Illustrator 25.4.1, SVG Export Plug-In . SVG Version: 6.00 Build 0)  -->
<svg version="1.1" id="Layer_1" xmlns="http://www.w3.org/2000/svg" xmlns:xlink="http://www.w3.org/1999/xlink" x="0px" y="0px"
	 viewBox="0 0 841.9 595.3" style="enable-background:new 0 0 841.9 595.3;" xml:space="preserve">
<style type="text/css">
	.st0{fill:none;stroke:#3E54FF;stroke-width:10;stroke-miterlimit:10;}
	.st1{fill:#3E54FF;}
</style>
<g>
	<path class="st0" d="M154.8,94.3H5.9v374.3h148.9c55.5,0,102.4-17.8,135.6-51.7c33.6-34.2,52.5-84.8,51.6-138.7
		C340.4,186.7,281.9,94.3,154.8,94.3z M154.8,386.1H90.4V175.7h64.4c73.6,0,101.3,52.9,102.7,102.4c0.9,32.3-9.1,60.8-27.9,80.1
		C211.6,376.8,186.4,386.1,154.8,386.1z"/>
</g>
<g>
	<path class="st0" d="M800.9,142c-25.5-27.7-61.7-42.3-104.6-42.3c-28,0-56.1,0.1-84.1,0.2c-28,0.1-56,0.3-84,0.3h-8.9v374.3h85
		V369.6h92c43,0,79.2-14.6,104.7-42.2c22.6-24.4,35-57.4,35-92.6C836,199.5,823.6,166.5,800.9,142z M604.3,181.6h92
		c38.1,0,55.5,28.2,55.5,54.4c0,14.3-4.9,27.5-13.8,37.4c-9.9,11-24.3,16.8-41.7,16.8h-92V181.6z"/>
</g>
<g>
	
		<image style="overflow:visible;opacity:0.4;enable-background:new    ;" width="671" height="721" xlink:href="63A627A2A8FE42B5.png"  transform="matrix(0.7572 0 0 0.7572 177.2522 30.7506)">
	</image>
	<g>
		<g>
			<path class="st1" d="M599.4,278.2c-1.6-91.5-60-183.9-187.1-183.9h-149v374.3h149c55.5,0,102.4-17.8,135.6-51.7
				c32.8-33.4,51.6-82.4,51.6-134.8C599.4,280.8,599.4,279.5,599.4,278.2z M347.8,175.7h64.5c73.6,0,101.3,52.9,102.6,102.4
				c0.9,32.3-9,60.8-27.9,80.2c-18,18.5-43.1,27.8-74.7,27.8h-64.5L347.8,175.7L347.8,175.7z"/>
		</g>
	</g>
</g>
</svg>
